<svg xmlns="http://www.w3.org/2000/svg" viewBox="2 0 252 122">
  <!-- Firn: Icon + Wordmark with dark background (for README, social, marketing) -->
  <!-- Matches banner.svg inner content exactly — bars integrated into FIRN wordmark -->
  <!-- Font: Varela Round 400, uppercase, vectorized -->

  <defs>
    <linearGradient id="bgGrad" x1="0%" y1="0%" x2="100%" y2="100%">
      <stop offset="0%" stop-color="#111827"/>
      <stop offset="100%" stop-color="#030712"/>
    </linearGradient>
  </defs>

  <!-- Dark background with rounded corners -->
  <rect x="2" y="0" width="252" height="122" rx="16" fill="url(#bgGrad)"/>
  <rect x="2" y="0" width="252" height="122" rx="16" fill="none" stroke="#1F2937" stroke-width="1"/>

  <!-- Snowflake above top bar (centered over top bar at x=64) -->
  <g transform="translate(64, 25)" fill="none" stroke="#FFFFFF" stroke-width="0.8">
    <line x1="0" y1="-7" x2="0" y2="7"/>
    <line x1="-6.06" y1="-3.5" x2="6.06" y2="3.5"/>
    <line x1="-6.06" y1="3.5" x2="6.06" y2="-3.5"/>
    <line x1="0" y1="-4.5" x2="-2" y2="-6"/>
    <line x1="0" y1="-4.5" x2="2" y2="-6"/>
    <line x1="0" y1="4.5" x2="-2" y2="6"/>
    <line x1="0" y1="4.5" x2="2" y2="6"/>
    <line x1="-3.9" y1="-2.25" x2="-5" y2="-0.5"/>
    <line x1="-3.9" y1="-2.25" x2="-2.5" y2="-3.8"/>
    <line x1="3.9" y1="2.25" x2="5" y2="0.5"/>
    <line x1="3.9" y1="2.25" x2="2.5" y2="3.8"/>
    <circle cx="0" cy="0" r="0.8" fill="#FFFFFF" stroke="none"/>
  </g>

  <!-- Stacked bars — RIGHT-ALIGNED, compact, matching banner.svg -->
  <g transform="translate(22, 19)">
    <rect x="30" y="15" width="24" height="6" rx="3" fill="#BAE6FD" opacity="0.5"/>
    <rect x="23" y="21" width="31" height="7" rx="4" fill="#7DD3FC" opacity="0.65"/>
    <rect x="16" y="28" width="38" height="8" rx="5.5" fill="#38BDF8" opacity="0.8"/>
    <rect x="9" y="36" width="45" height="9" rx="6" fill="#0EA5E9" opacity="0.9"/>
    <rect x="2" y="45" width="52" height="10" rx="7" fill="#0284C7"/>
  </g>

  <!-- FIRN wordmark (Varela Round vectorized, baseline at y=75) -->
  <g fill="#38BDF8">
    <!-- F -->
    <g transform="translate(71, 75)">
      <path d="M8.52 0.30L8.52 0.30Q7.38 0.30 6.60-0.48Q5.82-1.26 5.82-2.40L5.82-2.40L5.82-39.12Q5.82-40.26 6.60-41.07Q7.38-41.88 8.52-41.88L8.52-41.88L31.86-41.88Q32.94-41.88 33.69-41.13Q34.44-40.38 34.44-39.30L34.44-39.30Q34.44-38.22 33.69-37.50Q32.94-36.78 31.86-36.78L31.86-36.78L11.28-36.78L11.28-23.52L29.76-23.52Q30.84-23.52 31.59-22.77Q32.34-22.02 32.34-20.94L32.34-20.94Q32.34-19.86 31.59-19.14Q30.84-18.42 29.76-18.42L29.76-18.42L11.28-18.42L11.28-2.40Q11.28-1.26 10.47-0.48Q9.66 0.30 8.52 0.30Z"/>
    </g>
    <!-- I -->
    <g transform="translate(113.48, 75)">
      <path d="M8.52 0.30L8.52 0.30Q7.38 0.30 6.60-0.48Q5.82-1.26 5.82-2.40L5.82-2.40L5.82-39.42Q5.82-40.56 6.60-41.37Q7.38-42.18 8.52-42.18L8.52-42.18Q9.66-42.18 10.47-41.37Q11.28-40.56 11.28-39.42L11.28-39.42L11.28-2.40Q11.28-1.26 10.47-0.48Q9.66 0.30 8.52 0.30Z"/>
    </g>
    <!-- R -->
    <g transform="translate(136.58, 75)">
      <path d="M8.52 0.30L8.52 0.30Q7.38 0.30 6.60-0.48Q5.82-1.26 5.82-2.40L5.82-2.40L5.82-39.12Q5.82-40.26 6.60-41.07Q7.38-41.88 8.52-41.88L8.52-41.88L22.50-41.88Q28.20-41.88 31.80-40.26Q35.40-38.64 37.11-35.91Q38.82-33.18 38.82-29.70L38.82-29.70Q38.82-26.22 36.87-23.22Q34.92-20.22 30.96-18.84L30.96-18.84Q33.48-18.18 34.98-16.47Q36.48-14.76 37.23-12.60Q37.98-10.44 38.22-8.43Q38.46-6.42 38.46-5.16L38.46-5.16L38.46-2.40Q38.46-1.26 37.68-0.48Q36.90 0.30 35.76 0.30L35.76 0.30Q34.50 0.30 33.75-0.45Q33-1.20 33-2.40L33-2.40L33-4.20Q33-5.70 32.79-7.74Q32.58-9.78 31.74-11.76Q30.90-13.74 29.01-15.03Q27.12-16.32 23.70-16.32L23.70-16.32L11.28-16.32L11.28-2.40Q11.28-1.26 10.47-0.48Q9.66 0.30 8.52 0.30ZM11.28-36.72L11.28-21.48L22.14-21.48Q27.18-21.48 30.27-23.46Q33.36-25.44 33.36-29.28L33.36-29.28Q33.36-31.50 32.34-33.18Q31.32-34.86 28.80-35.79Q26.28-36.72 21.84-36.72L21.84-36.72L11.28-36.72Z"/>
    </g>
    <!-- N -->
    <g transform="translate(185.30, 75)">
      <path d="M8.52 0.30L8.52 0.30Q7.38 0.30 6.60-0.48Q5.82-1.26 5.82-2.40L5.82-2.40L5.82-38.22Q5.82-39.84 6.96-41.01Q8.10-42.18 9.72-42.18L9.72-42.18L10.50-42.18Q11.52-42.18 12.36-41.70Q13.20-41.22 13.80-40.38L13.80-40.38L36.90-7.02L36.90-39.42Q36.90-40.56 37.68-41.37Q38.46-42.18 39.60-42.18L39.60-42.18Q40.74-42.18 41.55-41.37Q42.36-40.56 42.36-39.42L42.36-39.42L42.36-3.60Q42.36-1.98 41.19-0.84Q40.02 0.30 38.40 0.30L38.40 0.30L37.68 0.30Q36.72 0.30 35.88-0.15Q35.04-0.60 34.50-1.32L34.50-1.32L11.28-34.86L11.28-2.40Q11.28-1.26 10.47-0.48Q9.66 0.30 8.52 0.30Z"/>
    </g>
  </g>

  <!-- Tagline: LIGHT CORE, DEEP FOCUS (Varela Round vectorized, 10px) -->
  <g fill="#6E7681" transform="translate(76, 100)">
    <path d="M5.15 0L1.60 0Q1.34 0 1.16-0.18Q0.97-0.37 0.97-0.63L0.97-0.63L0.97-6.57Q0.97-6.76 1.10-6.90Q1.23-7.03 1.42-7.03L1.42-7.03Q1.61-7.03 1.75-6.90Q1.88-6.76 1.88-6.57L1.88-6.57L1.88-0.91L5.15-0.91Q5.34-0.91 5.48-0.78Q5.61-0.64 5.61-0.45L5.61-0.45Q5.61-0.26 5.48-0.13Q5.34 0 5.15 0L5.15 0ZM7.18 0.05L7.18 0.05Q6.99 0.05 6.86-0.08Q6.73-0.21 6.73-0.40L6.73-0.40L6.73-6.57Q6.73-6.76 6.86-6.90Q6.99-7.03 7.18-7.03L7.18-7.03Q7.37-7.03 7.50-6.90Q7.64-6.76 7.64-6.57L7.64-6.57L7.64-0.40Q7.64-0.21 7.50-0.08Q7.37 0.05 7.18 0.05ZM12.67 0.10L12.67 0.10Q11.62 0.10 10.83-0.36Q10.04-0.82 9.60-1.63Q9.16-2.43 9.16-3.48L9.16-3.48Q9.16-4.29 9.43-4.96Q9.70-5.62 10.17-6.09Q10.65-6.57 11.28-6.83Q11.91-7.08 12.64-7.08L12.64-7.08Q13.49-7.08 14.07-6.87Q14.66-6.66 15.13-6.36L15.13-6.36Q15.20-6.32 15.27-6.23Q15.33-6.14 15.33-6L15.33-6Q15.33-5.84 15.22-5.71Q15.11-5.59 14.91-5.59L14.91-5.59Q14.80-5.59 14.70-5.64L14.70-5.64Q14.26-5.90 13.79-6.05Q13.32-6.20 12.74-6.20L12.74-6.20Q11.99-6.20 11.38-5.88Q10.78-5.57 10.42-4.96Q10.07-4.36 10.07-3.48L10.07-3.48Q10.07-2.71 10.39-2.10Q10.71-1.48 11.32-1.12Q11.93-0.76 12.79-0.76L12.79-0.76Q13.32-0.76 13.76-0.89Q14.20-1.01 14.54-1.20L14.54-1.20L14.54-3.01L12.89-3.01Q12.72-3.01 12.60-3.13Q12.48-3.25 12.48-3.42L12.48-3.42Q12.48-3.59 12.60-3.71Q12.72-3.83 12.89-3.83L12.89-3.83L14.86-3.83Q15.06-3.83 15.20-3.69Q15.34-3.55 15.34-3.35L15.34-3.35L15.34-1.08Q15.34-0.87 15.23-0.70Q15.13-0.54 14.96-0.46L14.96-0.46Q14.47-0.21 13.89-0.06Q13.32 0.10 12.67 0.10ZM17.60 0.05L17.60 0.05Q17.41 0.05 17.28-0.08Q17.15-0.21 17.15-0.40L17.15-0.40L17.15-6.57Q17.15-6.76 17.28-6.90Q17.41-7.03 17.60-7.03L17.60-7.03Q17.79-7.03 17.93-6.90Q18.06-6.76 18.06-6.57L18.06-6.57L18.06-3.91L21.85-3.91L21.85-6.57Q21.85-6.76 21.98-6.90Q22.11-7.03 22.30-7.03L22.30-7.03Q22.49-7.03 22.63-6.90Q22.76-6.76 22.76-6.57L22.76-6.57L22.76-0.40Q22.76-0.21 22.63-0.08Q22.49 0.05 22.30 0.05L22.30 0.05Q22.11 0.05 21.98-0.08Q21.85-0.21 21.85-0.40L21.85-0.40L21.85-3.06L18.06-3.06L18.06-0.40Q18.06-0.21 17.93-0.08Q17.79 0.05 17.60 0.05ZM26.77 0.05L26.77 0.05Q26.58 0.05 26.45-0.08Q26.32-0.21 26.32-0.40L26.32-0.40L26.32-6.13L24.28-6.13Q24.10-6.13 23.98-6.25Q23.86-6.37 23.86-6.55L23.86-6.55Q23.86-6.73 23.98-6.86Q24.10-6.98 24.28-6.98L24.28-6.98L29.26-6.98Q29.44-6.98 29.57-6.86Q29.69-6.73 29.69-6.55L29.69-6.55Q29.69-6.37 29.57-6.25Q29.44-6.13 29.26-6.13L29.26-6.13L27.23-6.13L27.23-0.40Q27.23-0.21 27.09-0.08Q26.96 0.05 26.77 0.05ZM36.47 0.10L36.47 0.10Q35.48 0.10 34.69-0.34Q33.89-0.77 33.43-1.57Q32.97-2.38 32.97-3.49L32.97-3.49Q32.97-4.61 33.43-5.41Q33.89-6.21 34.69-6.65Q35.48-7.08 36.47-7.08L36.47-7.08Q37.21-7.08 37.75-6.90Q38.29-6.72 38.75-6.46L38.75-6.46Q38.85-6.41 38.91-6.33Q38.96-6.24 38.97-6.10L38.97-6.10Q38.98-5.94 38.87-5.82Q38.76-5.70 38.57-5.70L38.57-5.70Q38.47-5.70 38.39-5.74L38.39-5.74Q37.99-5.95 37.57-6.08Q37.15-6.21 36.56-6.21L36.56-6.21Q35.68-6.21 35.08-5.85Q34.48-5.49 34.18-4.88Q33.88-4.26 33.88-3.49L33.88-3.49Q33.88-2.72 34.18-2.10Q34.48-1.49 35.08-1.13Q35.68-0.77 36.56-0.77L36.56-0.77Q37.15-0.77 37.57-0.90Q37.99-1.03 38.39-1.24L38.39-1.24Q38.47-1.28 38.57-1.28L38.57-1.28Q38.76-1.28 38.87-1.16Q38.98-1.04 38.97-0.88L38.97-0.88Q38.96-0.74 38.91-0.66Q38.85-0.57 38.75-0.52L38.75-0.52Q38.29-0.26 37.75-0.08Q37.21 0.10 36.47 0.10ZM43.43 0.10L43.43 0.10Q42.36 0.10 41.58-0.36Q40.80-0.82 40.37-1.63Q39.94-2.44 39.92-3.49L39.92-3.49Q39.94-4.54 40.37-5.35Q40.80-6.16 41.58-6.62Q42.36-7.08 43.43-7.08L43.43-7.08Q44.50-7.08 45.28-6.62Q46.06-6.16 46.49-5.35Q46.92-4.54 46.94-3.49L46.94-3.49Q46.92-2.44 46.49-1.63Q46.06-0.82 45.28-0.36Q44.50 0.10 43.43 0.10ZM43.43-0.75L43.43-0.75Q44.26-0.75 44.84-1.11Q45.42-1.48 45.73-2.10Q46.03-2.72 46.03-3.49L46.03-3.49Q46.03-4.26 45.73-4.88Q45.42-5.50 44.84-5.87Q44.26-6.23 43.43-6.23L43.43-6.23Q42.60-6.23 42.02-5.87Q41.44-5.50 41.14-4.88Q40.83-4.26 40.83-3.49L40.83-3.49Q40.83-2.72 41.14-2.10Q41.44-1.48 42.02-1.11Q42.60-0.75 43.43-0.75ZM48.91 0.05L48.91 0.05Q48.72 0.05 48.59-0.08Q48.46-0.21 48.46-0.40L48.46-0.40L48.46-6.52Q48.46-6.71 48.59-6.84Q48.72-6.98 48.91-6.98L48.91-6.98L51.24-6.98Q52.19-6.98 52.79-6.71Q53.39-6.44 53.68-5.99Q53.96-5.53 53.96-4.95L53.96-4.95Q53.96-4.37 53.64-3.87Q53.31-3.37 52.65-3.14L52.65-3.14Q53.07-3.03 53.32-2.75Q53.57-2.46 53.70-2.10Q53.82-1.74 53.86-1.41Q53.90-1.07 53.90-0.86L53.90-0.86L53.90-0.40Q53.90-0.21 53.77-0.08Q53.64 0.05 53.45 0.05L53.45 0.05Q53.24 0.05 53.12-0.07Q52.99-0.20 52.99-0.40L52.99-0.40L52.99-0.70Q52.99-0.95 52.96-1.29Q52.92-1.63 52.78-1.96Q52.64-2.29 52.33-2.50Q52.01-2.72 51.44-2.72L51.44-2.72L49.37-2.72L49.37-0.40Q49.37-0.21 49.24-0.08Q49.10 0.05 48.91 0.05ZM49.37-6.12L49.37-3.58L51.18-3.58Q52.02-3.58 52.54-3.91Q53.05-4.24 53.05-4.88L53.05-4.88Q53.05-5.25 52.88-5.53Q52.71-5.81 52.29-5.96Q51.87-6.12 51.13-6.12L51.13-6.12L49.37-6.12ZM60.04 0L56.03 0Q55.84 0 55.71-0.13Q55.58-0.26 55.58-0.45L55.58-0.45L55.58-6.52Q55.58-6.71 55.71-6.84Q55.84-6.98 56.03-6.98L56.03-6.98L60.04-6.98Q60.22-6.98 60.35-6.86Q60.47-6.73 60.47-6.55L60.47-6.55Q60.47-6.37 60.35-6.25Q60.22-6.13 60.04-6.13L60.04-6.13L56.49-6.13L56.49-3.92L59.68-3.92Q59.86-3.92 59.99-3.79Q60.11-3.67 60.11-3.49L60.11-3.49Q60.11-3.31 59.99-3.19Q59.86-3.07 59.68-3.07L59.68-3.07L56.49-3.07L56.49-0.85L60.04-0.85Q60.22-0.85 60.35-0.72Q60.47-0.60 60.47-0.42L60.47-0.42Q60.47-0.24 60.35-0.12Q60.22 0 60.04 0L60.04 0ZM61.91 1.51L61.91 1.51Q61.78 1.51 61.70 1.42Q61.62 1.33 61.62 1.21L61.62 1.21Q61.62 1.05 61.77 0.96L61.77 0.96Q61.99 0.83 62.14 0.64Q62.28 0.44 62.28 0.03L62.28 0.03L62.24 0.03Q62.01 0.03 61.85-0.14Q61.68-0.30 61.68-0.53L61.68-0.53L61.68-0.59Q61.68-0.82 61.85-0.98Q62.01-1.15 62.24-1.15L62.24-1.15L62.34-1.15Q62.57-1.15 62.74-0.98Q62.90-0.82 62.90-0.59L62.90-0.59L62.90 0Q62.90 0.60 62.64 0.94Q62.37 1.28 62.08 1.46L62.08 1.46Q62.06 1.47 62.01 1.49Q61.96 1.51 61.91 1.51ZM69.62 0L67.61 0Q67.42 0 67.29-0.13Q67.16-0.26 67.16-0.45L67.16-0.45L67.16-6.52Q67.16-6.71 67.29-6.84Q67.42-6.98 67.61-6.98L67.61-6.98L69.62-6.98Q70.52-6.98 71.18-6.67Q71.84-6.37 72.28-5.87Q72.72-5.36 72.94-4.74Q73.15-4.12 73.15-3.49L73.15-3.49Q73.15-2.86 72.94-2.24Q72.72-1.62 72.28-1.11Q71.84-0.61 71.18-0.30Q70.52 0 69.62 0L69.62 0ZM68.07-6.13L68.07-0.85L69.51-0.85Q70.35-0.85 70.97-1.19Q71.58-1.52 71.92-2.12Q72.25-2.71 72.25-3.49L72.25-3.49Q72.25-4.27 71.92-4.87Q71.58-5.46 70.97-5.79Q70.35-6.13 69.51-6.13L69.51-6.13L68.07-6.13ZM79.13 0L75.12 0Q74.93 0 74.80-0.13Q74.67-0.26 74.67-0.45L74.67-0.45L74.67-6.52Q74.67-6.71 74.80-6.84Q74.93-6.98 75.12-6.98L75.12-6.98L79.13-6.98Q79.31-6.98 79.44-6.86Q79.56-6.73 79.56-6.55L79.56-6.55Q79.56-6.37 79.44-6.25Q79.31-6.13 79.13-6.13L79.13-6.13L75.58-6.13L75.58-3.92L78.77-3.92Q78.95-3.92 79.08-3.79Q79.20-3.67 79.20-3.49L79.20-3.49Q79.20-3.31 79.08-3.19Q78.95-3.07 78.77-3.07L78.77-3.07L75.58-3.07L75.58-0.85L79.13-0.85Q79.31-0.85 79.44-0.72Q79.56-0.60 79.56-0.42L79.56-0.42Q79.56-0.24 79.44-0.12Q79.31 0 79.13 0L79.13 0ZM85.51 0L81.50 0Q81.31 0 81.18-0.13Q81.05-0.26 81.05-0.45L81.05-0.45L81.05-6.52Q81.05-6.71 81.18-6.84Q81.31-6.98 81.50-6.98L81.50-6.98L85.51-6.98Q85.69-6.98 85.82-6.86Q85.94-6.73 85.94-6.55L85.94-6.55Q85.94-6.37 85.82-6.25Q85.69-6.13 85.51-6.13L85.51-6.13L81.96-6.13L81.96-3.92L85.15-3.92Q85.33-3.92 85.46-3.79Q85.58-3.67 85.58-3.49L85.58-3.49Q85.58-3.31 85.46-3.19Q85.33-3.07 85.15-3.07L85.15-3.07L81.96-3.07L81.96-0.85L85.51-0.85Q85.69-0.85 85.82-0.72Q85.94-0.60 85.94-0.42L85.94-0.42Q85.94-0.24 85.82-0.12Q85.69 0 85.51 0L85.51 0ZM87.88 0.05L87.88 0.05Q87.69 0.05 87.56-0.08Q87.43-0.21 87.43-0.40L87.43-0.40L87.43-6.52Q87.43-6.71 87.56-6.84Q87.69-6.98 87.88-6.98L87.88-6.98L90.16-6.98Q90.92-6.98 91.44-6.79Q91.95-6.59 92.26-6.27Q92.56-5.94 92.70-5.55Q92.83-5.16 92.83-4.76L92.83-4.76Q92.83-4.36 92.70-3.97Q92.56-3.58 92.26-3.25Q91.95-2.93 91.44-2.73Q90.92-2.54 90.16-2.54L90.16-2.54L88.34-2.54L88.34-0.40Q88.34-0.21 88.21-0.08Q88.07 0.05 87.88 0.05ZM88.34-6.12L88.34-3.40L90.07-3.40Q90.82-3.40 91.22-3.60Q91.62-3.81 91.77-4.13Q91.92-4.44 91.92-4.76L91.92-4.76Q91.92-5.09 91.77-5.40Q91.62-5.71 91.22-5.92Q90.82-6.12 90.07-6.12L90.07-6.12L88.34-6.12ZM97.20 0.05L97.20 0.05Q97.01 0.05 96.88-0.08Q96.75-0.21 96.75-0.40L96.75-0.40L96.75-6.52Q96.75-6.71 96.88-6.84Q97.01-6.98 97.20-6.98L97.20-6.98L101.09-6.98Q101.27-6.98 101.39-6.86Q101.52-6.73 101.52-6.55L101.52-6.55Q101.52-6.37 101.39-6.25Q101.27-6.13 101.09-6.13L101.09-6.13L97.66-6.13L97.66-3.92L100.74-3.92Q100.92-3.92 101.05-3.79Q101.17-3.67 101.17-3.49L101.17-3.49Q101.17-3.31 101.05-3.19Q100.92-3.07 100.74-3.07L100.74-3.07L97.66-3.07L97.66-0.40Q97.66-0.21 97.53-0.08Q97.39 0.05 97.20 0.05ZM105.92 0.10L105.92 0.10Q104.85 0.10 104.07-0.36Q103.29-0.82 102.86-1.63Q102.43-2.44 102.41-3.49L102.41-3.49Q102.43-4.54 102.86-5.35Q103.29-6.16 104.07-6.62Q104.85-7.08 105.92-7.08L105.92-7.08Q106.99-7.08 107.77-6.62Q108.55-6.16 108.98-5.35Q109.41-4.54 109.43-3.49L109.43-3.49Q109.41-2.44 108.98-1.63Q108.55-0.82 107.77-0.36Q106.99 0.10 105.92 0.10ZM105.92-0.75L105.92-0.75Q106.75-0.75 107.33-1.11Q107.91-1.48 108.22-2.10Q108.52-2.72 108.52-3.49L108.52-3.49Q108.52-4.26 108.22-4.88Q107.91-5.50 107.33-5.87Q106.75-6.23 105.92-6.23L105.92-6.23Q105.09-6.23 104.51-5.87Q103.93-5.50 103.63-4.88Q103.32-4.26 103.32-3.49L103.32-3.49Q103.32-2.72 103.63-2.10Q103.93-1.48 104.51-1.11Q105.09-0.75 105.92-0.75ZM114.03 0.10L114.03 0.10Q113.04 0.10 112.25-0.34Q111.45-0.77 110.99-1.57Q110.53-2.38 110.53-3.49L110.53-3.49Q110.53-4.61 110.99-5.41Q111.45-6.21 112.25-6.65Q113.04-7.08 114.03-7.08L114.03-7.08Q114.77-7.08 115.31-6.90Q115.85-6.72 116.31-6.46L116.31-6.46Q116.41-6.41 116.47-6.33Q116.52-6.24 116.53-6.10L116.53-6.10Q116.54-5.94 116.43-5.82Q116.32-5.70 116.13-5.70L116.13-5.70Q116.03-5.70 115.95-5.74L115.95-5.74Q115.55-5.95 115.13-6.08Q114.71-6.21 114.12-6.21L114.12-6.21Q113.24-6.21 112.64-5.85Q112.04-5.49 111.74-4.88Q111.44-4.26 111.44-3.49L111.44-3.49Q111.44-2.72 111.74-2.10Q112.04-1.49 112.64-1.13Q113.24-0.77 114.12-0.77L114.12-0.77Q114.71-0.77 115.13-0.90Q115.55-1.03 115.95-1.24L115.95-1.24Q116.03-1.28 116.13-1.28L116.13-1.28Q116.32-1.28 116.43-1.16Q116.54-1.04 116.53-0.88L116.53-0.88Q116.52-0.74 116.47-0.66Q116.41-0.57 116.31-0.52L116.31-0.52Q115.85-0.26 115.31-0.08Q114.77 0.10 114.03 0.10ZM120.72 0.10L120.72 0.10Q120.22 0.10 119.71-0.06Q119.20-0.22 118.78-0.56Q118.36-0.89 118.11-1.41Q117.85-1.92 117.85-2.62L117.85-2.62L117.85-6.57Q117.85-6.76 117.98-6.90Q118.11-7.03 118.30-7.03L118.30-7.03Q118.49-7.03 118.63-6.90Q118.76-6.76 118.76-6.57L118.76-6.57L118.76-2.59Q118.76-1.97 119.05-1.55Q119.33-1.14 119.78-0.94Q120.23-0.73 120.72-0.73L120.72-0.73Q121.21-0.73 121.66-0.94Q122.11-1.14 122.40-1.55Q122.68-1.97 122.68-2.59L122.68-2.59L122.68-6.57Q122.68-6.76 122.81-6.90Q122.94-7.03 123.13-7.03L123.13-7.03Q123.32-7.03 123.46-6.90Q123.59-6.76 123.59-6.57L123.59-6.57L123.59-2.62Q123.59-1.92 123.34-1.41Q123.08-0.89 122.66-0.56Q122.24-0.22 121.73-0.06Q121.22 0.10 120.72 0.10ZM127.68 0.10L127.68 0.10Q126.93 0.10 126.34-0.04Q125.74-0.19 125.30-0.38L125.30-0.38Q125.19-0.43 125.11-0.55Q125.02-0.66 125.02-0.79L125.02-0.79Q125.02-0.96 125.13-1.08Q125.24-1.21 125.43-1.21L125.43-1.21Q125.53-1.21 125.62-1.17L125.62-1.17Q125.96-1.02 126.45-0.89Q126.95-0.76 127.59-0.76L127.59-0.76Q128.09-0.76 128.49-0.86Q128.88-0.97 129.11-1.23Q129.34-1.48 129.34-1.91L129.34-1.91Q129.34-2.23 129.11-2.43Q128.88-2.62 128.50-2.75Q128.12-2.88 127.67-2.99Q127.21-3.10 126.76-3.23Q126.31-3.37 125.93-3.59Q125.55-3.81 125.32-4.16Q125.09-4.50 125.09-5.03L125.09-5.03Q125.09-5.59 125.39-6.05Q125.68-6.52 126.26-6.80Q126.84-7.08 127.68-7.08L127.68-7.08Q128.27-7.08 128.77-6.99Q129.27-6.90 129.67-6.75L129.67-6.75Q129.78-6.71 129.87-6.62Q129.95-6.53 129.95-6.35L129.95-6.35Q129.95-6.20 129.84-6.07Q129.74-5.93 129.55-5.93L129.55-5.93Q129.51-5.93 129.47-5.95Q129.43-5.96 129.39-5.97L129.39-5.97Q129.05-6.09 128.65-6.17Q128.24-6.24 127.78-6.24L127.78-6.24Q127.02-6.24 126.51-5.95Q126-5.66 126-5.10L126-5.10Q126-4.73 126.23-4.51Q126.46-4.29 126.84-4.16Q127.22-4.03 127.67-3.93Q128.12-3.82 128.57-3.69Q129.02-3.56 129.40-3.35Q129.78-3.13 130.01-2.77Q130.24-2.42 130.24-1.85L130.24-1.85Q130.24-1.29 129.93-0.84Q129.61-0.40 129.03-0.15Q128.46 0.10 127.68 0.10Z"/>
  </g>
</svg>
